<?xml version="1.0" encoding="UTF-8" standalone="no"?>
<svg width="158px" height="96px" viewBox="0 0 158 96" version="1.1" xmlns="http://www.w3.org/2000/svg" xmlns:xlink="http://www.w3.org/1999/xlink">
    <!-- Generator: Sketch 3.6.1 (26313) - http://www.bohemiancoding.com/sketch -->
    <title>freshly-squeezed-logo</title>
    <desc>Created with Sketch.</desc>
    <defs>
        <rect id="path-1" x="0" y="0" width="168" height="130"></rect>
        <rect id="path-3" x="0" y="0" width="168" height="130"></rect>
        <rect id="path-5" x="0" y="0" width="168" height="130"></rect>
        <rect id="path-7" x="0" y="0" width="168" height="130"></rect>
        <rect id="path-9" x="0" y="0" width="168" height="130"></rect>
    </defs>
    <g id="Page-1" stroke="none" stroke-width="1" fill="none" fill-rule="evenodd">
        <g id="Hero" transform="translate(-45.000000, -62.000000)">
            <g id="freshly-squeezed-logo" transform="translate(40.000000, 45.000000)">
                <mask id="mask-2" fill="white">
                    <use xlink:href="#path-1"></use>
                </mask>
                <g id="SVGID_1_"></g>
                <path d="M60.7131212,49.0987908 C61.3227576,48.2051471 61.8511515,47.2297222 62.2974545,46.1716667 C62.7437576,45.1144608 63.0931212,44.0419608 63.3459697,42.9541667 C63.5986061,41.8667974 63.7702121,40.8760784 63.8590909,39.9822222 C63.9486061,39.0885784 63.9329091,38.3589216 63.8147576,37.792402 C63.6953333,37.2269444 63.4872424,36.9435784 63.1900606,36.9435784 C62.7437576,36.9435784 62.259697,37.4055882 61.7395758,38.3287582 C61.2188182,39.2525654 60.7201212,40.4144935 60.2447576,41.8145425 C59.7681212,43.2152288 59.3812121,44.7491013 59.0840303,46.4174346 C58.7866364,48.0864052 58.6377273,49.665098 58.6377273,51.1543627 C59.4113333,50.6783333 60.1028485,49.9926471 60.7131212,49.0987908" id="Shape" fill="#FFFFFF" mask="url(#mask-2)"></path>
                <mask id="mask-4" fill="white">
                    <use xlink:href="#path-3"></use>
                </mask>
                <g id="SVGID_1_"></g>
                <path d="M162.143545,62.2408987 C162.078636,60.8416993 161.686848,59.6525817 160.978364,58.7064706 L138.080727,35.7769771 C137.510545,35.0158824 136.422364,34.0706209 134.472333,33.8847549 C134.288212,33.8671242 134.095818,33.8582026 133.900667,33.8582026 C132.779818,33.8582026 131.452364,34.1547386 129.860818,34.7484477 C129.616667,34.4748529 129.348333,34.2244118 129.053061,34.0020098 L119.239697,24.174902 C118.700697,23.4652124 118.010879,22.891683 117.178939,22.4878758 C116.399818,22.1101961 115.484515,21.919232 114.456152,21.919232 C113.599182,21.919232 112.668606,22.0458333 111.611394,22.3062582 C110.72197,22.5252614 110.055061,23.2646895 109.927576,24.1732026 C109.844848,24.7635131 110.000333,25.3476634 110.337394,25.8098856 C110.331667,25.895915 110.32,26.0070098 110.299636,26.1465686 C110.154758,27.134951 109.853758,28.4228431 109.405333,29.9737092 C109.099879,31.0315523 108.744364,32.1994281 108.352152,33.4454739 C108.138758,33.2192484 107.907333,33.0121405 107.658727,32.8237255 L98.9358788,24.0888725 C98.4102424,23.3940523 97.7465152,22.8326307 96.951697,22.4345588 C96.2003636,22.0590033 95.3240909,21.8691013 94.3457879,21.8688889 C93.4152121,21.8688889 92.394697,22.0339379 91.2259091,22.3735948 C90.2168485,22.6669444 89.5467576,23.6226144 89.614,24.6728105 C89.6432727,25.1271732 89.8070303,25.5464869 90.0679394,25.8891176 C89.997303,26.4970588 89.8377879,27.2902288 89.5923636,28.2520588 C89.2843636,29.4558333 88.8717879,30.8665033 88.3654545,32.4434967 C87.8434242,34.0712582 87.3160909,35.7495752 86.7961818,37.4336275 L84.6809091,35.3801797 C84.3792727,34.7263562 83.7774848,34.2348203 83.0331515,34.1058824 C81.6698485,33.870098 80.4459091,33.7502941 79.3948485,33.7502941 C78.3399697,33.7502941 77.4422727,33.8647876 76.6506364,34.1005719 C74.3370303,34.7911438 73.2887273,36.1446732 72.8165455,37.1587582 C72.5804545,37.6645261 72.4156364,38.2068301 72.3172121,38.7807843 C72.059697,38.4972059 70.390303,36.8804902 70.390303,36.8804902 C69.8468485,36.2262418 69.1952121,35.640817 68.4385758,35.1286765 C66.9197879,34.1018464 65.0191818,33.5818464 62.7878788,33.5818464 C61.4994545,33.5818464 60.263,33.8014869 59.0844545,34.2231373 C59.0422424,34.1776797 59.0059697,34.1283987 58.9629091,34.0837908 C58.7507879,33.8637255 58.5079091,33.6377124 58.2387273,33.4119118 L46.2447576,21.4011438 C46.1244848,21.260098 46.0084545,21.115866 45.8786364,20.9811928 C44.3967576,19.444134 41.5838182,17.6120261 36.5970606,17.6120261 C27.5984545,17.6120261 23.4164848,27.7577614 22.3490909,30.8673529 C22.1049394,31.5789542 21.7341515,32.7502288 21.2002424,34.4984314 L19.1486061,34.4984314 C18.2532424,34.4984314 17.3884242,34.8504085 16.7758182,35.4638725 L15.8144848,36.4265523 C15.0998485,37.1421895 14.8864545,38.2047059 15.2708182,39.1336111 C15.5043636,39.698219 18.1705152,42.3547222 18.6350606,42.5936928 C18.6643333,42.6508333 18.6906364,42.7098856 18.7239394,42.7638399 C18.5326061,43.4078922 18.3393636,44.0591667 18.1448485,44.7144771 C16.129697,51.5037908 13.8455758,59.1990686 13.035697,61.4396569 C12.2510606,63.6107843 10.9995455,64.7115359 9.31636364,64.7115359 C9.00242424,64.7115359 8.778,64.6701144 8.715,64.6569444 C8.50563636,64.5927941 8.29415152,64.5613562 8.08478788,64.5613562 C7.65206061,64.5613562 7.22845455,64.6951797 6.85087879,64.9479575 C6.28536364,65.3260621 5.95975758,65.9522712 5.90078788,66.6305229 C5.67,69.2891503 6.47606061,71.9923856 8.05721212,73.8623039 L30.9546364,96.791585 C32.4570909,98.5682516 34.6126667,99.615049 37.1882424,99.8187582 C37.5511818,99.8476471 37.9160303,99.8618791 38.2732424,99.8618791 C40.5306364,99.8618791 42.5843939,99.3123529 44.378303,98.2723529 C44.1511212,97.060719 44.0268182,95.8131863 44.0268182,94.5363399 C44.0268182,83.3973366 53.0765455,74.3347222 64.2001818,74.3347222 C75.3238182,74.3347222 84.3737576,83.3971242 84.3737576,94.5363399 C84.3737576,94.9409967 84.3584848,95.3420425 84.3347273,95.7411765 C85.5245152,95.6258333 86.8055152,95.5644444 88.1647879,95.5644444 C89.2533939,95.5644444 90.4134848,95.6020425 91.6123939,95.6757516 C94.7407576,95.868415 98.1839091,96.2373856 101.846606,96.7718301 C105.599667,97.3179575 109.389,97.8749183 113.219273,98.4437745 C117.061636,99.0128431 120.895939,99.5128758 124.617182,99.9302778 C128.010061,100.309444 130.937333,100.493611 133.567,100.493611 C134.134212,100.493611 134.696121,100.484902 135.237879,100.467484 C146.309758,100.113807 149.881242,97.3311275 153.291727,91.6160131 C156.673364,85.9486928 161.340879,68.1112908 161.384576,67.9364706 C161.877121,65.9769118 162.202727,63.5279412 162.143545,62.2408987 M51.4752424,53.0312908 C51.079,51.5462745 51.0092121,49.9607843 51.2612121,48.2771569 C50.7247576,48.7861111 50.1719697,49.2806209 49.5824848,49.7428431 C48.7102424,50.4270425 47.8386364,51.0022712 46.9666061,51.4674673 C46.0943636,51.9333007 45.3676364,52.1658987 44.7866364,52.1658987 C43.6237879,52.1658987 42.8607879,51.8821078 42.4974242,51.3147386 C42.1340606,50.7469444 42.0029697,50.026634 42.105,49.1533824 C42.2066061,48.2801307 42.4605152,47.3491013 42.8682121,46.3590196 C43.2746364,45.37 43.6749091,44.4381209 44.0673333,43.5650817 C44.4597576,42.6916176 44.7499394,41.9713072 44.9389394,41.4037255 C45.1279394,40.8361438 45.0479697,40.5523529 44.6992424,40.5523529 C44.4086364,40.5523529 44.0083636,41.0039542 43.5001212,41.9058824 C42.9914545,42.8084477 42.4541515,43.9291667 41.8869394,45.2676144 C41.3203636,46.6066993 40.7535758,48.0694118 40.187,49.6555392 C39.6202121,51.2420915 39.1253333,52.7048039 38.7044848,54.0434641 C38.2825758,55.382549 37.9482727,56.5034804 37.7015758,57.4051961 C37.4542424,58.3077614 37.3889091,58.7587255 37.5051515,58.7587255 C35.7899394,59.1659314 34.468,59.1659314 33.5380606,58.7587255 C32.6081212,58.3513072 31.9685758,57.696634 31.6196364,56.7940686 C31.2709091,55.8921405 31.1332424,54.8007353 31.2053636,53.5194281 C31.2783333,52.2389706 31.4603333,50.9291993 31.7505152,49.5901144 C32.0413333,48.2516667 32.3682121,46.9342484 32.7313636,45.6387092 C33.0945152,44.3440196 33.3779091,43.2305229 33.5817576,42.2986438 C33.7847576,41.3676144 34.2611818,39.374281 34.174,38.937549 C34.0868182,38.500817 33.7707576,38.4581209 33.171303,38.4581209 L29.6836061,38.4581209 C27.3903636,50.0429902 27.7208485,58.970719 25.9326667,65.3313725 C24.0356667,72.0782026 19.5885455,75.0569444 14.4677273,74.6520752 C9.34669697,74.2472059 7.86439394,69.9289542 8.13378788,66.8248856 C8.13378788,66.8248856 12.9852121,68.1745915 15.1435455,62.2035131 C16.2603636,59.1132516 19.8751212,46.7041993 22.3461212,38.4581209 L17.6491212,38.4581209 C17.3735758,38.4581209 17.2231818,38.190049 17.3994545,38.0135294 L18.361,37.0506373 C18.5557273,36.8556373 18.8444242,36.7426307 19.1490303,36.7426307 L22.862,36.7426307 C23.5666667,34.4085784 24.1381212,32.5609641 24.4690303,31.5970098 C25.9513333,27.2785458 29.7245455,19.8562255 36.5974848,19.8562255 C43.4702121,19.8562255 46.298,23.7698203 46.1654242,27.5485294 C45.9999697,32.2591176 39.5620909,36.9949837 35.2498788,31.4619118 C35.2498788,31.4619118 38.3860909,29.9577778 39.2916364,28.1547712 C40.1918788,26.362598 40.236,23.7698203 38.0797879,22.9600817 C36.3132424,22.2966993 32.9184545,23.6884641 30.1288485,36.3201307 C30.0972424,36.4630882 30.0715758,36.6005229 30.0408182,36.7426307 L33.542303,36.7426307 L34.5416061,36.7426307 L36.8446061,36.7426307 L39.4237879,36.7426307 C40.3539394,36.7426307 41.2987273,37.6003758 41.2987273,40.0939542 C41.2987273,41.1666667 40.8768182,42.3062908 40.4703939,43.5432026 C40.062697,44.7805392 39.6560606,45.9375817 39.2494242,47.0141176 C38.8419394,48.0912908 38.5148485,48.9938562 38.2683636,49.7209641 C38.0212424,50.4489216 37.9849697,50.8276634 38.1593333,50.8561275 C38.333697,50.8854412 38.5659697,50.5219935 38.8572121,49.7647222 C39.1473939,49.0080882 39.5111818,48.0619771 39.9468788,46.9268137 C40.3827879,45.7916503 40.8984545,44.554951 41.4947273,43.2156536 C42.0903636,41.8769935 42.7808182,40.6396569 43.5658788,39.5044935 C44.3507273,38.3693301 45.2227576,37.4164216 46.1817576,36.6449183 C47.1407576,35.8738399 48.2157879,35.4878758 49.4081212,35.4878758 C50.3087879,35.4878758 50.9122727,35.7211111 51.2177273,36.1863072 C51.5225455,36.6523529 51.66,37.2416013 51.6315758,37.9546895 C51.6020909,38.6682026 51.4497879,39.4609477 51.1740303,40.3339869 C50.8974242,41.2072386 50.6214545,42.0518137 50.3454848,42.8662255 C50.0690909,43.6814869 49.8510303,44.4238889 49.691303,45.0930065 C49.5313636,45.7629739 49.5313636,46.2498366 49.691303,46.5555065 C49.8510303,46.8611765 50.2434545,46.9418954 50.8685758,46.7957516 C51.0823939,46.7460458 51.3373636,46.6540686 51.6279697,46.525768 C52.0619697,44.8752778 52.715303,43.3188889 53.5951818,41.8589379 C54.6362727,40.1315523 55.952697,38.6936928 57.5444545,37.546634 C59.1357879,36.4 60.8838788,35.8260458 62.788303,35.8260458 C64.573303,35.8260458 66.0384242,36.2134967 67.1838788,36.9879739 C68.3289091,37.7630882 69.1396364,38.7306536 69.6160606,39.8925817 C70.0916364,41.0545098 70.2333333,42.3283824 70.0398788,43.7137745 C69.8464242,45.0989542 69.3033939,46.4174346 68.4114242,47.6685784 C67.5186061,48.9199346 66.2692121,50.0000817 64.6626061,50.9085948 C63.0557879,51.8177451 61.0769091,52.3764052 58.7272424,52.5845752 C58.8458182,53.627549 59.0763939,54.528415 59.4187576,55.2882353 C59.7604848,56.0476307 60.2738182,56.5618954 60.9583333,56.8299673 C62.0293333,57.2768954 63.145303,57.3514542 64.3053939,57.0534314 C65.4659091,56.7558333 66.5214242,56.2789542 67.4738485,55.6234314 C68.2767273,55.0709314 68.9616667,54.4615033 69.5424545,53.8027941 C69.4894242,53.6018464 69.4361818,53.4008987 69.3982121,53.1918791 C69.195,52.0717974 69.1659394,50.9946242 69.3108182,49.9612092 C69.4565455,48.928219 69.7541515,48.0114216 70.2044848,47.2106046 C70.6548182,46.4102124 71.2071818,45.8789542 71.8613636,45.6168301 C72.5155455,45.3549183 73.2490606,45.4279902 74.0631818,45.8351961 C74.8764545,46.2432516 75.7200606,47.1451797 76.5916667,48.5422549 C76.3010606,48.2801307 76.0467273,48.3608497 75.8290909,48.7822876 C75.6110303,49.2045752 75.4510909,49.7940359 75.3492727,50.5504575 C75.2472424,51.3077288 75.2109697,52.1516667 75.2404545,53.0829085 C75.2688788,54.0145752 75.3929697,54.8729575 75.6110303,55.6589052 C75.8290909,56.4446405 76.1483333,57.0708497 76.5702424,57.5362582 C76.9910909,58.0023039 77.5360303,58.1331536 78.2048485,57.929232 C78.9606364,57.7259477 79.3530606,57.2087092 79.3825455,56.3792157 C79.4109697,55.5497222 79.2298182,54.5454085 78.8373939,53.3664869 C78.4449697,52.1877778 77.9437273,50.8930882 77.3332424,49.4809314 C76.7227576,48.0694118 76.1625455,46.6646895 75.654303,45.2676144 C75.1456364,43.8705392 74.782697,42.5463235 74.5646364,41.2945425 C74.3465758,40.0433987 74.4403333,38.9806699 74.8480303,38.1074183 C75.2546667,37.2341667 76.0687879,36.6160294 77.2895455,36.251732 C78.510303,35.8882843 80.2978485,35.909951 82.6519697,36.3173693 C82.0705455,36.4630882 81.7729394,36.8779412 81.7580909,37.5617157 C81.7434545,38.2457026 81.8893939,39.1047222 82.1942121,40.1375 C82.4996667,41.1711275 82.8846667,42.3356046 83.3496364,43.6302941 C83.8141818,44.9258333 84.2218788,46.2498366 84.5706061,47.6035784 C84.9191212,48.9571078 85.1371818,50.2817484 85.2245758,51.5766503 C85.3115455,52.8719771 85.1371818,54.0434641 84.7010606,55.0913235 C84.2653636,56.1389706 83.487303,57.0124346 82.3685758,57.710866 C81.2494242,58.4095098 79.6578788,58.8311601 77.5945758,58.9768791 C75.8791515,59.0928595 74.4556061,58.8821405 73.3218182,58.344085 C72.1884545,57.805817 71.3015758,57.0927288 70.6622424,56.2046078 C70.351697,55.7731863 70.0946061,55.3133007 69.8867273,54.8266503 C69.5621818,55.2298203 69.175697,55.6293791 68.7234545,56.0255392 C67.7710303,56.8597059 66.5812424,57.5747059 65.1532424,58.1705392 C63.7252424,58.7661601 62.1334848,59.0643954 60.3781818,59.0643954 C57.7601818,59.0643954 55.7369697,58.4910784 54.3089697,57.3438072 C52.8809697,56.1971732 51.9370303,54.7595261 51.4752424,53.0312908 M136.314182,44.4608497 C135.839667,46.3543464 131.453424,62.5376471 128.471,67.5354248 C125.488576,72.5329902 122.622394,74.9643301 112.269394,75.2950654 C109.117273,75.3959641 105.682394,75.1852451 101.969212,74.7703922 C98.2562424,74.3540523 94.4836667,73.8620915 90.6508485,73.2942974 C86.8182424,72.7252288 83.027,72.1678431 79.2726667,71.6215033 C75.5206667,71.0741013 72.0473939,70.703219 68.8528485,70.5060948 C65.66,70.3093954 62.8247879,70.3637745 60.3489091,70.6700817 C57.8747273,70.9755392 55.9584242,71.6971242 54.6,72.835049 C55.9584242,69.1612745 57.8936061,66.4057843 60.4089394,64.5690033 C62.9240606,62.7320098 65.7985152,61.5624346 69.0325152,61.0592157 C72.266303,60.5570588 75.7807273,60.5670425 79.5719697,61.0919281 C83.3653333,61.6168137 87.1981515,62.3936275 91.0702121,63.4208824 C94.9441818,64.4489869 98.6796364,65.7593954 102.448606,66.7993954 C104.598667,67.3926797 106.378576,67.8570261 107.877636,68.2238725 L107.877212,68.2236601 C121.077303,71.3045752 123.54597,68.7672386 124.917545,61.7618954 C126.603909,53.1487582 128.45997,48.2302124 128.227485,48.768268 C127.994364,49.3073856 127.726455,49.9767157 127.420788,50.776683 C127.115758,51.5775 126.759182,52.4358824 126.352758,53.3526797 C125.945061,54.2696895 125.473303,55.1284967 124.935576,55.9286765 C124.397212,56.7294935 123.779939,57.3911765 123.082697,57.9152124 C122.384818,58.4390359 121.585545,58.7009477 120.684879,58.7009477 C119.347242,58.7009477 118.344545,58.4248039 117.676152,57.8716667 C117.008394,57.3189542 116.579697,56.5912092 116.390061,55.6884314 C116.299485,55.2557353 116.253242,54.7907516 116.246455,54.2975163 C114.933,55.6168464 113.790091,56.6339052 112.822606,57.339134 C111.325242,58.4309641 110.155818,58.9764542 109.312848,58.9764542 C107.975212,58.9764542 107.038273,58.5038235 106.500545,57.5575 C106.005879,56.6876471 105.741364,55.5616176 105.701909,54.1857843 C104.961182,54.9500654 104.168485,55.6680392 103.317455,56.3350327 C102.445424,57.019232 101.573394,57.5944608 100.701576,58.0596569 C99.8295455,58.5254902 99.0886061,58.7583007 98.4783333,58.7583007 C97.606303,58.7583007 96.9661212,58.5112582 96.5594848,58.0161111 C96.152,57.5213889 95.9055152,56.8665033 95.8187576,56.0512418 C95.7313636,55.2366176 95.7676364,54.3123856 95.9277879,53.2787582 C96.0868788,52.2461928 96.3049394,51.1832516 96.5813333,50.0918464 C96.857303,49.0000163 97.1627576,47.9379248 97.4972727,46.9045098 C97.8309394,45.8715196 98.1075455,44.9472876 98.3253939,44.1320261 C98.5434545,43.317402 98.6809091,42.6627288 98.7392424,42.1673693 C98.7973636,41.6728595 98.6961818,41.4251797 98.4344242,41.4251797 C97.9980909,41.4251797 97.5110606,41.854902 96.9733333,42.7130719 C96.4356061,43.5718791 95.905303,44.6418301 95.3822121,45.9220752 C94.858697,47.2033824 94.3578788,48.5930229 93.8780606,50.0918464 C93.3984545,51.5910948 92.9913939,52.9807353 92.657303,54.2614052 C92.323,55.5422876 92.0907273,56.6120261 91.9596364,57.4701961 C91.8289697,58.3290033 91.8357576,58.7583007 91.981697,58.7583007 C90.3827273,59.2528105 89.1182727,59.3326797 88.1879091,58.9983333 C87.2573333,58.6641993 86.59,58.0379902 86.1825152,57.1211928 C85.7758788,56.204183 85.5798788,55.0403431 85.5945152,53.6281863 C85.6089394,52.2166667 85.7686667,50.6742974 86.073697,49.0000163 C86.3791515,47.326585 86.7862121,45.5660621 87.2944545,43.7171732 C87.802697,41.8693464 88.3336364,40.0497712 88.886,38.2599346 C89.4381515,36.4696732 89.976303,34.7601307 90.4991818,33.1296078 C91.0220606,31.4999346 91.4435455,30.0591013 91.7636364,28.8073203 C92.0828788,27.5561765 92.2718788,26.5444281 92.3302121,25.7729248 C92.3883333,25.0020588 92.2281818,24.5872059 91.8506061,24.5285784 C93.6527879,24.0047549 95.0184242,23.9760784 95.9487879,24.4412745 C96.8789394,24.9071078 97.5034242,25.7007026 97.8237273,26.8207843 C98.1429697,27.9415033 98.2085152,29.3092647 98.0197273,30.9249183 C97.8305152,32.5403595 97.5110606,34.2360948 97.0607273,36.0112745 C96.6099697,37.7870915 96.0794545,39.5478268 95.4691818,41.2941176 C94.858697,43.0406209 94.2989091,44.619951 93.7906667,46.0312582 C93.2822121,47.443415 92.8755758,48.5930229 92.5699091,49.4805065 C92.2650909,50.3686275 92.1844848,50.8272386 92.3302121,50.8557026 C92.5045758,50.9145425 92.715,50.5869935 92.9621212,49.8734804 C93.2090303,49.1603922 93.5295455,48.2731209 93.9215455,47.2101797 C94.3139697,46.1478758 94.7785152,44.9833987 95.3166667,43.7171732 C95.8539697,42.4511601 96.4937273,41.2722386 97.2348788,40.1808333 C97.9762424,39.0894281 98.8332121,38.1798529 99.8074848,37.4521078 C100.780697,36.7247876 101.892636,36.3604902 103.142667,36.3604902 C104.043333,36.3604902 104.646818,36.6738072 104.951848,37.2991667 C105.257303,37.9253758 105.394758,38.7332026 105.366333,39.7222222 C105.336848,40.7123039 105.184121,41.8111438 104.908576,43.0187418 C104.631758,44.2269771 104.356,45.4199183 104.080242,46.5988399 C103.803212,47.777549 103.579,48.8693791 103.404,49.8734804 C103.229636,50.8775817 103.229636,51.6709641 103.404,52.2527778 C103.578788,52.8354412 103.971212,53.1334641 104.581485,53.1481209 C104.879515,53.1553431 105.261758,53.0620915 105.726091,52.8713399 C105.795242,51.5636928 105.99803,50.1177614 106.347606,48.519951 C106.783727,46.5266176 107.30703,44.4814542 107.917515,42.3855229 C108.528,40.2900163 109.166909,38.2161765 109.835727,36.1640033 C110.503909,34.1120425 111.078333,32.2565686 111.557727,30.5973693 C112.037545,28.9383824 112.356788,27.5629739 112.516727,26.4713562 C112.676242,25.379951 112.553,24.718268 112.146364,24.4850327 C113.919061,24.0483007 115.270697,24.0559477 116.201061,24.5069118 C117.131212,24.9583007 117.755697,25.7075 118.076,26.7553595 C118.39503,27.8030065 118.482636,29.0911111 118.336909,30.6192484 C118.191606,32.1473856 117.915848,33.7776961 117.508788,35.5093301 C117.101727,37.2411765 116.621697,39.0019118 116.070394,40.7921732 C115.517606,42.5820098 115.024,44.2705229 114.587879,45.8566503 C114.15197,47.443415 113.817455,48.8623693 113.585182,50.1135131 C113.351636,51.3655065 113.337636,52.3116176 113.541485,52.951634 C113.744273,53.5920752 114.239364,53.8539869 115.024,53.7373693 C115.368485,53.6863889 115.792939,53.5313235 116.288667,53.2838562 C116.30903,53.0563562 116.332152,52.8269444 116.367788,52.5886111 C116.541939,51.4247712 116.803909,50.238415 117.152212,49.0301797 C117.501152,47.8227941 117.893364,46.6290033 118.329697,45.4500817 C118.765606,44.2713725 119.922303,41.1469118 120.242606,40.2008007 C120.561848,39.2551144 120.765485,38.4836111 120.853091,37.8865033 C120.939848,37.2902451 120.823606,36.9631209 120.503939,36.904281 C122.364242,36.1185458 123.810273,35.7621078 124.842667,35.8347549 C125.873576,35.907402 126.593091,36.2642647 127.000364,36.904281 C127.407424,37.5447222 127.574364,38.4105392 127.501394,39.5021569 C127.428848,40.5935621 127.225,41.7656863 126.891121,43.0166176 C126.556606,44.2683987 125.377848,47.5969935 124.913515,48.877451 C124.447909,50.1585458 124.033848,51.322598 123.670485,52.3704575 C123.307121,53.4181046 123.052788,54.2696895 122.907909,54.9243627 C122.76197,55.5792484 122.848939,55.9067974 123.16903,55.9067974 C123.459212,55.9067974 123.83,55.5507843 124.280758,54.8370588 C124.731091,54.124183 125.203485,53.2148203 125.697939,52.1083333 C126.19197,51.0026961 126.686,49.7725817 127.180455,48.4190523 C127.674485,47.0657353 128.896939,43.7010294 129.289364,42.4492484 C129.681788,41.1978922 129.986394,40.0697386 130.204455,39.0654248 C130.422515,38.0613235 130.517121,37.3410131 130.487848,36.904281 C132.086182,36.2929412 133.343848,36.0312418 134.259152,36.1185458 C135.175091,36.2056373 135.850697,36.5406209 136.286818,37.1226471 C136.723152,37.705098 136.962636,38.4693791 137.006333,39.4146405 C137.050879,40.3613889 136.789121,42.5673529 136.314182,44.4608497" id="Shape" fill="#FFFFFF" mask="url(#mask-4)"></path>
                <mask id="mask-6" fill="white">
                    <use xlink:href="#path-5"></use>
                </mask>
                <g id="SVGID_1_"></g>
                <path d="M75.6697879,93.1798366 L75.6697879,96.6031699 L76.0723939,96.6031699 C76.6733333,96.6031699 77.0988485,96.4810294 77.0988485,94.8980882 C77.0988485,93.3030392 76.6733333,93.1798366 76.0723939,93.1798366 L75.6697879,93.1798366 L75.6697879,93.1798366 Z" id="Shape" fill="#FFFFFF" mask="url(#mask-6)"></path>
                <mask id="mask-8" fill="white">
                    <use xlink:href="#path-7"></use>
                </mask>
                <g id="SVGID_1_"></g>
                <path d="M55.7388788,93.100817 C55.5210303,93.100817 54.9421515,93.100817 54.9421515,94.8915033 C54.9421515,96.6821895 55.5210303,96.6821895 55.7388788,96.6821895 C55.7772727,96.6821895 55.812697,96.6798529 55.8466364,96.6760294 L55.6037576,96.4415196 C55.4936667,96.3359477 55.4887879,96.1615523 55.5916667,96.0493954 L55.8213939,95.7991667 C55.8729394,95.7433007 55.9446364,95.7110131 56.0201515,95.7088889 C56.0907879,95.7050654 56.1694848,95.7352288 56.2231515,95.7883333 L56.4250909,95.9850327 C56.4982727,95.7016667 56.5356061,95.3356699 56.5356061,94.8915033 C56.5353939,93.100817 55.9565152,93.100817 55.7388788,93.100817" id="Shape" fill="#FFFFFF" mask="url(#mask-8)"></path>
                <mask id="mask-10" fill="white">
                    <use xlink:href="#path-9"></use>
                </mask>
                <g id="SVGID_1_"></g>
                <path d="M64.2006061,76.579134 C54.2968788,76.579134 46.268303,84.6191667 46.268303,94.5365523 C46.268303,104.45415 54.2968788,112.493971 64.2006061,112.493971 C74.1043333,112.493971 82.1329091,104.45415 82.1329091,94.5365523 C82.1329091,84.6189542 74.1043333,76.579134 64.2006061,76.579134 L64.2006061,76.579134 Z M51.982,97.5981373 C50.9358182,97.5981373 50.3361515,96.9878595 50.3361515,95.9238562 L50.3361515,95.7857843 C50.3361515,95.6309314 50.4615152,95.5053922 50.6163636,95.5053922 L51.0365758,95.5053922 C51.1914242,95.5053922 51.3167879,95.6309314 51.3167879,95.7857843 L51.3167879,95.9631536 C51.3167879,96.4404575 51.5361212,96.6819771 51.9688485,96.6819771 C52.6998182,96.6819771 52.6998182,96.1757843 52.6998182,96.0092484 C52.6998182,95.591634 52.4514242,95.4690686 51.842,95.269183 C51.2455152,95.0735458 50.4282121,94.8054739 50.4282121,93.7081209 C50.4282121,92.7970588 51.0605455,92.1848693 52.0017273,92.1848693 C53.0035758,92.1848693 53.5555152,92.7399183 53.5555152,93.7474183 C53.5555152,93.9022712 53.4303636,94.0280229 53.2755152,94.0280229 L52.855303,94.0280229 C52.7004545,94.0280229 52.5750909,93.9022712 52.5750909,93.7474183 C52.5750909,93.1777124 52.291697,93.1010294 52.0148788,93.1010294 C51.6351818,93.1010294 51.4086364,93.3108987 51.4086364,93.6620261 C51.4086364,94.0883497 51.6614848,94.2145261 52.2823636,94.4197222 C52.8722727,94.6147222 53.6802424,94.881732 53.6802424,95.9433987 C53.6802424,96.964281 53.0298788,97.5981373 51.982,97.5981373 L51.982,97.5981373 Z M57.4943939,97.4288399 L57.2646667,97.6786438 C57.2131212,97.7345098 57.1416364,97.7670098 57.0661212,97.769134 L57.0582727,97.769134 C56.9855152,97.769134 56.9155152,97.7406699 56.8631212,97.6896895 L56.5572424,97.3918791 C56.322,97.5291013 56.0477273,97.5983497 55.7386667,97.5983497 C54.9277273,97.5983497 53.9615152,97.1289052 53.9615152,94.8917157 C53.9615152,92.6545261 54.9277273,92.1850817 55.7386667,92.1850817 C56.5496061,92.1850817 57.5158182,92.6545261 57.5158182,94.8917157 C57.5158182,95.677451 57.3980909,96.294951 57.1662424,96.7331699 L57.4818788,97.0362908 C57.5923939,97.1414379 57.5972727,97.3164706 57.4943939,97.4288399 L57.4943939,97.4288399 Z M61.1547576,95.9238562 C61.1547576,97.019085 60.5945455,97.5981373 59.5352121,97.5981373 C58.4760909,97.5981373 57.9156667,97.019085 57.9156667,95.9238562 L57.9156667,92.544281 C57.9156667,92.3892157 58.0410303,92.2636765 58.1958788,92.2636765 L58.6160909,92.2636765 C58.7709394,92.2636765 58.896303,92.3892157 58.896303,92.544281 L58.896303,95.9172712 C58.896303,96.5521895 59.151697,96.6819771 59.5352121,96.6819771 C59.9187273,96.6819771 60.1743333,96.552402 60.1743333,95.9172712 L60.1743333,92.544281 C60.1743333,92.3892157 60.299697,92.2636765 60.4545455,92.2636765 L60.8747576,92.2636765 C61.0296061,92.2636765 61.1547576,92.3892157 61.1547576,92.544281 L61.1547576,95.9238562 L61.1547576,95.9238562 Z M64.5372424,97.2387255 C64.5372424,97.3937908 64.4118788,97.5193301 64.2570303,97.5193301 L61.8738485,97.5193301 C61.719,97.5193301 61.5936364,97.3937908 61.5936364,97.2387255 L61.5936364,92.544281 C61.5936364,92.3892157 61.719,92.2636765 61.8738485,92.2636765 L64.1980606,92.2636765 C64.3529091,92.2636765 64.4780606,92.3892157 64.4780606,92.544281 L64.4780606,92.899232 C64.4780606,93.0542974 64.3529091,93.1798366 64.1980606,93.1798366 L62.5740606,93.1798366 L62.5740606,94.3281699 L64.0733333,94.3281699 C64.2281818,94.3281699 64.3533333,94.4537092 64.3533333,94.6085621 L64.3533333,94.9635131 C64.3533333,95.1185784 64.2281818,95.2441176 64.0733333,95.2441176 L62.5740606,95.2441176 L62.5740606,96.6029575 L64.2570303,96.6029575 C64.4118788,96.6029575 64.5372424,96.7284967 64.5372424,96.8833497 L64.5372424,97.2387255 L64.5372424,97.2387255 Z M67.7818485,97.2387255 C67.7818485,97.3937908 67.6564848,97.5193301 67.5016364,97.5193301 L65.1182424,97.5193301 C64.9633939,97.5193301 64.8382424,97.3937908 64.8382424,97.2387255 L64.8382424,92.544281 C64.8382424,92.3892157 64.9633939,92.2636765 65.1182424,92.2636765 L67.4424545,92.2636765 C67.597303,92.2636765 67.7226667,92.3892157 67.7226667,92.544281 L67.7226667,92.899232 C67.7226667,93.0542974 67.597303,93.1798366 67.4424545,93.1798366 L65.8186667,93.1798366 L65.8186667,94.3281699 L67.3177273,94.3281699 C67.4725758,94.3281699 67.5979394,94.4537092 67.5979394,94.6085621 L67.5979394,94.9635131 C67.5979394,95.1185784 67.4725758,95.2441176 67.3177273,95.2441176 L65.8186667,95.2441176 L65.8186667,96.6029575 L67.5016364,96.6029575 C67.6564848,96.6029575 67.7818485,96.7284967 67.7818485,96.8833497 L67.7818485,97.2387255 L67.7818485,97.2387255 Z M71.1641212,97.2387255 C71.1641212,97.3937908 71.0389697,97.5193301 70.8841212,97.5193301 L68.139697,97.5193301 C67.9848485,97.5193301 67.8594848,97.3937908 67.8594848,97.2387255 L67.8594848,96.8444771 C67.8594848,96.7951961 67.8726364,96.7463399 67.8972424,96.7036438 L69.9380606,93.180049 L68.271,93.180049 C68.1161515,93.180049 67.9907879,93.0545098 67.9907879,92.8994444 L67.9907879,92.5444935 C67.9907879,92.3894281 68.1161515,92.2638889 68.271,92.2638889 L70.8512424,92.2638889 C71.0060909,92.2638889 71.1314545,92.3894281 71.1314545,92.5444935 L71.1314545,92.9389542 C71.1314545,92.987598 71.1187273,93.0351797 71.0947576,93.0778758 L69.0878788,96.6033824 L70.8841212,96.6033824 C71.0389697,96.6033824 71.1641212,96.7289216 71.1641212,96.8837745 L71.1641212,97.2387255 L71.1641212,97.2387255 Z M74.3885758,97.2387255 C74.3885758,97.3937908 74.2632121,97.5193301 74.1083636,97.5193301 L71.7249697,97.5193301 C71.5701212,97.5193301 71.4449697,97.3937908 71.4449697,97.2387255 L71.4449697,92.544281 C71.4449697,92.3892157 71.5701212,92.2636765 71.7249697,92.2636765 L74.0491818,92.2636765 C74.2040303,92.2636765 74.3293939,92.3892157 74.3293939,92.544281 L74.3293939,92.899232 C74.3293939,93.0542974 74.2040303,93.1798366 74.0491818,93.1798366 L72.4253939,93.1798366 L72.4253939,94.3281699 L73.9244545,94.3281699 C74.079303,94.3281699 74.2046667,94.4537092 74.2046667,94.6085621 L74.2046667,94.9635131 C74.2046667,95.1185784 74.079303,95.2441176 73.9244545,95.2441176 L72.4253939,95.2441176 L72.4253939,96.6029575 L74.1083636,96.6029575 C74.2632121,96.6029575 74.3885758,96.7284967 74.3885758,96.8833497 L74.3885758,97.2387255 L74.3885758,97.2387255 Z M78.0794848,94.8915033 C78.0794848,96.2562908 77.8393636,97.5193301 76.0989091,97.5193301 L74.9695758,97.5193301 C74.8147273,97.5193301 74.6893636,97.3937908 74.6893636,97.2387255 L74.6893636,92.544281 C74.6893636,92.3892157 74.8147273,92.2636765 74.9695758,92.2636765 L76.0989091,92.2636765 C77.8393636,92.2636765 78.0794848,93.5267157 78.0794848,94.8915033 L78.0794848,94.8915033 Z" id="Shape" fill="#FFFFFF" mask="url(#mask-10)"></path>
            </g>
        </g>
    </g>
</svg>