<?xml version="1.0" encoding="UTF-8" standalone="no"?>
<svg width="158px" height="96px" viewBox="0 0 158 96" version="1.1" xmlns="http://www.w3.org/2000/svg" xmlns:xlink="http://www.w3.org/1999/xlink">
    <!-- Generator: Sketch 3.6.1 (26313) - http://www.bohemiancoding.com/sketch -->
    <title>logo-dark</title>
    <desc>Created with Sketch.</desc>
    <defs></defs>
    <g id="Page-1" stroke="none" stroke-width="1" fill="none" fill-rule="evenodd">
        <g id="logo-dark" fill="#1E1E1E">
            <path d="M55.7131212,32.0987908 C56.3227576,31.2051471 56.8511515,30.2297222 57.2974545,29.1716667 C57.7437576,28.1144608 58.0931212,27.0419608 58.3459697,25.9541667 C58.5986061,24.8667974 58.7702121,23.8760784 58.8590909,22.9822222 C58.9486061,22.0885784 58.9329091,21.3589216 58.8147576,20.792402 C58.6953333,20.2269444 58.4872424,19.9435784 58.1900606,19.9435784 C57.7437576,19.9435784 57.259697,20.4055882 56.7395758,21.3287582 C56.2188182,22.2525654 55.7201212,23.4144935 55.2447576,24.8145425 C54.7681212,26.2152288 54.3812121,27.7491013 54.0840303,29.4174346 C53.7866364,31.0864052 53.6377273,32.665098 53.6377273,34.1543627 C54.4113333,33.6783333 55.1028485,32.9926471 55.7131212,32.0987908" id="Shape"></path>
            <path d="M157.143545,45.2408987 C157.078636,43.8416993 156.686848,42.6525817 155.978364,41.7064706 L133.080727,18.7769771 C132.510545,18.0158824 131.422364,17.0706209 129.472333,16.8847549 C129.288212,16.8671242 129.095818,16.8582026 128.900667,16.8582026 C127.779818,16.8582026 126.452364,17.1547386 124.860818,17.7484477 C124.616667,17.4748529 124.348333,17.2244118 124.053061,17.0020098 L114.239697,7.174902 C113.700697,6.4652124 113.010879,5.891683 112.178939,5.4878758 C111.399818,5.1101961 110.484515,4.919232 109.456152,4.919232 C108.599182,4.919232 107.668606,5.0458333 106.611394,5.3062582 C105.72197,5.5252614 105.055061,6.2646895 104.927576,7.1732026 C104.844848,7.7635131 105.000333,8.3476634 105.337394,8.8098856 C105.331667,8.895915 105.32,9.0070098 105.299636,9.1465686 C105.154758,10.134951 104.853758,11.4228431 104.405333,12.9737092 C104.099879,14.0315523 103.744364,15.1994281 103.352152,16.4454739 C103.138758,16.2192484 102.907333,16.0121405 102.658727,15.8237255 L93.9358788,7.0888725 C93.4102424,6.3940523 92.7465152,5.8326307 91.951697,5.4345588 C91.2003636,5.0590033 90.3240909,4.8691013 89.3457879,4.8688889 C88.4152121,4.8688889 87.394697,5.0339379 86.2259091,5.3735948 C85.2168485,5.6669444 84.5467576,6.6226144 84.614,7.6728105 C84.6432727,8.1271732 84.8070303,8.5464869 85.0679394,8.8891176 C84.997303,9.4970588 84.8377879,10.2902288 84.5923636,11.2520588 C84.2843636,12.4558333 83.8717879,13.8665033 83.3654545,15.4434967 C82.8434242,17.0712582 82.3160909,18.7495752 81.7961818,20.4336275 L79.6809091,18.3801797 C79.3792727,17.7263562 78.7774848,17.2348203 78.0331515,17.1058824 C76.6698485,16.870098 75.4459091,16.7502941 74.3948485,16.7502941 C73.3399697,16.7502941 72.4422727,16.8647876 71.6506364,17.1005719 C69.3370303,17.7911438 68.2887273,19.1446732 67.8165455,20.1587582 C67.5804545,20.6645261 67.4156364,21.2068301 67.3172121,21.7807843 C67.059697,21.4972059 65.390303,19.8804902 65.390303,19.8804902 C64.8468485,19.2262418 64.1952121,18.640817 63.4385758,18.1286765 C61.9197879,17.1018464 60.0191818,16.5818464 57.7878788,16.5818464 C56.4994545,16.5818464 55.263,16.8014869 54.0844545,17.2231373 C54.0422424,17.1776797 54.0059697,17.1283987 53.9629091,17.0837908 C53.7507879,16.8637255 53.5079091,16.6377124 53.2387273,16.4119118 L41.2447576,4.4011438 C41.1244848,4.260098 41.0084545,4.115866 40.8786364,3.9811928 C39.3967576,2.444134 36.5838182,0.6120261 31.5970606,0.6120261 C22.5984545,0.6120261 18.4164848,10.7577614 17.3490909,13.8673529 C17.1049394,14.5789542 16.7341515,15.7502288 16.2002424,17.4984314 L14.1486061,17.4984314 C13.2532424,17.4984314 12.3884242,17.8504085 11.7758182,18.4638725 L10.8144848,19.4265523 C10.0998485,20.1421895 9.8864545,21.2047059 10.2708182,22.1336111 C10.5043636,22.698219 13.1705152,25.3547222 13.6350606,25.5936928 C13.6643333,25.6508333 13.6906364,25.7098856 13.7239394,25.7638399 C13.5326061,26.4078922 13.3393636,27.0591667 13.1448485,27.7144771 C11.129697,34.5037908 8.8455758,42.1990686 8.035697,44.4396569 C7.2510606,46.6107843 5.9995455,47.7115359 4.31636364,47.7115359 C4.00242424,47.7115359 3.778,47.6701144 3.715,47.6569444 C3.50563636,47.5927941 3.29415152,47.5613562 3.08478788,47.5613562 C2.65206061,47.5613562 2.22845455,47.6951797 1.85087879,47.9479575 C1.28536364,48.3260621 0.95975758,48.9522712 0.90078788,49.6305229 C0.67,52.2891503 1.47606061,54.9923856 3.05721212,56.8623039 L25.9546364,79.791585 C27.4570909,81.5682516 29.6126667,82.615049 32.1882424,82.8187582 C32.5511818,82.8476471 32.9160303,82.8618791 33.2732424,82.8618791 C35.5306364,82.8618791 37.5843939,82.3123529 39.378303,81.2723529 C39.1511212,80.060719 39.0268182,78.8131863 39.0268182,77.5363399 C39.0268182,66.3973366 48.0765455,57.3347222 59.2001818,57.3347222 C70.3238182,57.3347222 79.3737576,66.3971242 79.3737576,77.5363399 C79.3737576,77.9409967 79.3584848,78.3420425 79.3347273,78.7411765 C80.5245152,78.6258333 81.8055152,78.5644444 83.1647879,78.5644444 C84.2533939,78.5644444 85.4134848,78.6020425 86.6123939,78.6757516 C89.7407576,78.868415 93.1839091,79.2373856 96.846606,79.7718301 C100.599667,80.3179575 104.389,80.8749183 108.219273,81.4437745 C112.061636,82.0128431 115.895939,82.5128758 119.617182,82.9302778 C123.010061,83.309444 125.937333,83.493611 128.567,83.493611 C129.134212,83.493611 129.696121,83.484902 130.237879,83.467484 C141.309758,83.113807 144.881242,80.3311275 148.291727,74.6160131 C151.673364,68.9486928 156.340879,51.1112908 156.384576,50.9364706 C156.877121,48.9769118 157.202727,46.5279412 157.143545,45.2408987 M46.4752424,36.0312908 C46.079,34.5462745 46.0092121,32.9607843 46.2612121,31.2771569 C45.7247576,31.7861111 45.1719697,32.2806209 44.5824848,32.7428431 C43.7102424,33.4270425 42.8386364,34.0022712 41.9666061,34.4674673 C41.0943636,34.9333007 40.3676364,35.1658987 39.7866364,35.1658987 C38.6237879,35.1658987 37.8607879,34.8821078 37.4974242,34.3147386 C37.1340606,33.7469444 37.0029697,33.026634 37.105,32.1533824 C37.2066061,31.2801307 37.4605152,30.3491013 37.8682121,29.3590196 C38.2746364,28.37 38.6749091,27.4381209 39.0673333,26.5650817 C39.4597576,25.6916176 39.7499394,24.9713072 39.9389394,24.4037255 C40.1279394,23.8361438 40.0479697,23.5523529 39.6992424,23.5523529 C39.4086364,23.5523529 39.0083636,24.0039542 38.5001212,24.9058824 C37.9914545,25.8084477 37.4541515,26.9291667 36.8869394,28.2676144 C36.3203636,29.6066993 35.7535758,31.0694118 35.187,32.6555392 C34.6202121,34.2420915 34.1253333,35.7048039 33.7044848,37.0434641 C33.2825758,38.382549 32.9482727,39.5034804 32.7015758,40.4051961 C32.4542424,41.3077614 32.3889091,41.7587255 32.5051515,41.7587255 C30.7899394,42.1659314 29.468,42.1659314 28.5380606,41.7587255 C27.6081212,41.3513072 26.9685758,40.696634 26.6196364,39.7940686 C26.2709091,38.8921405 26.1332424,37.8007353 26.2053636,36.5194281 C26.2783333,35.2389706 26.4603333,33.9291993 26.7505152,32.5901144 C27.0413333,31.2516667 27.3682121,29.9342484 27.7313636,28.6387092 C28.0945152,27.3440196 28.3779091,26.2305229 28.5817576,25.2986438 C28.7847576,24.3676144 29.2611818,22.374281 29.174,21.937549 C29.0868182,21.500817 28.7707576,21.4581209 28.171303,21.4581209 L24.6836061,21.4581209 C22.3903636,33.0429902 22.7208485,41.970719 20.9326667,48.3313725 C19.0356667,55.0782026 14.5885455,58.0569444 9.4677273,57.6520752 C4.34669697,57.2472059 2.86439394,52.9289542 3.13378788,49.8248856 C3.13378788,49.8248856 7.9852121,51.1745915 10.1435455,45.2035131 C11.2603636,42.1132516 14.8751212,29.7041993 17.3461212,21.4581209 L12.6491212,21.4581209 C12.3735758,21.4581209 12.2231818,21.190049 12.3994545,21.0135294 L13.361,20.0506373 C13.5557273,19.8556373 13.8444242,19.7426307 14.1490303,19.7426307 L17.862,19.7426307 C18.5666667,17.4085784 19.1381212,15.5609641 19.4690303,14.5970098 C20.9513333,10.2785458 24.7245455,2.8562255 31.5974848,2.8562255 C38.4702121,2.8562255 41.298,6.7698203 41.1654242,10.5485294 C40.9999697,15.2591176 34.5620909,19.9949837 30.2498788,14.4619118 C30.2498788,14.4619118 33.3860909,12.9577778 34.2916364,11.1547712 C35.1918788,9.362598 35.236,6.7698203 33.0797879,5.9600817 C31.3132424,5.2966993 27.9184545,6.6884641 25.1288485,19.3201307 C25.0972424,19.4630882 25.0715758,19.6005229 25.0408182,19.7426307 L28.542303,19.7426307 L29.5416061,19.7426307 L31.8446061,19.7426307 L34.4237879,19.7426307 C35.3539394,19.7426307 36.2987273,20.6003758 36.2987273,23.0939542 C36.2987273,24.1666667 35.8768182,25.3062908 35.4703939,26.5432026 C35.062697,27.7805392 34.6560606,28.9375817 34.2494242,30.0141176 C33.8419394,31.0912908 33.5148485,31.9938562 33.2683636,32.7209641 C33.0212424,33.4489216 32.9849697,33.8276634 33.1593333,33.8561275 C33.333697,33.8854412 33.5659697,33.5219935 33.8572121,32.7647222 C34.1473939,32.0080882 34.5111818,31.0619771 34.9468788,29.9268137 C35.3827879,28.7916503 35.8984545,27.554951 36.4947273,26.2156536 C37.0903636,24.8769935 37.7808182,23.6396569 38.5658788,22.5044935 C39.3507273,21.3693301 40.2227576,20.4164216 41.1817576,19.6449183 C42.1407576,18.8738399 43.2157879,18.4878758 44.4081212,18.4878758 C45.3087879,18.4878758 45.9122727,18.7211111 46.2177273,19.1863072 C46.5225455,19.6523529 46.66,20.2416013 46.6315758,20.9546895 C46.6020909,21.6682026 46.4497879,22.4609477 46.1740303,23.3339869 C45.8974242,24.2072386 45.6214545,25.0518137 45.3454848,25.8662255 C45.0690909,26.6814869 44.8510303,27.4238889 44.691303,28.0930065 C44.5313636,28.7629739 44.5313636,29.2498366 44.691303,29.5555065 C44.8510303,29.8611765 45.2434545,29.9418954 45.8685758,29.7957516 C46.0823939,29.7460458 46.3373636,29.6540686 46.6279697,29.525768 C47.0619697,27.8752778 47.715303,26.3188889 48.5951818,24.8589379 C49.6362727,23.1315523 50.952697,21.6936928 52.5444545,20.546634 C54.1357879,19.4 55.8838788,18.8260458 57.788303,18.8260458 C59.573303,18.8260458 61.0384242,19.2134967 62.1838788,19.9879739 C63.3289091,20.7630882 64.1396364,21.7306536 64.6160606,22.8925817 C65.0916364,24.0545098 65.2333333,25.3283824 65.0398788,26.7137745 C64.8464242,28.0989542 64.3033939,29.4174346 63.4114242,30.6685784 C62.5186061,31.9199346 61.2692121,33.0000817 59.6626061,33.9085948 C58.0557879,34.8177451 56.0769091,35.3764052 53.7272424,35.5845752 C53.8458182,36.627549 54.0763939,37.528415 54.4187576,38.2882353 C54.7604848,39.0476307 55.2738182,39.5618954 55.9583333,39.8299673 C57.0293333,40.2768954 58.145303,40.3514542 59.3053939,40.0534314 C60.4659091,39.7558333 61.5214242,39.2789542 62.4738485,38.6234314 C63.2767273,38.0709314 63.9616667,37.4615033 64.5424545,36.8027941 C64.4894242,36.6018464 64.4361818,36.4008987 64.3982121,36.1918791 C64.195,35.0717974 64.1659394,33.9946242 64.3108182,32.9612092 C64.4565455,31.928219 64.7541515,31.0114216 65.2044848,30.2106046 C65.6548182,29.4102124 66.2071818,28.8789542 66.8613636,28.6168301 C67.5155455,28.3549183 68.2490606,28.4279902 69.0631818,28.8351961 C69.8764545,29.2432516 70.7200606,30.1451797 71.5916667,31.5422549 C71.3010606,31.2801307 71.0467273,31.3608497 70.8290909,31.7822876 C70.6110303,32.2045752 70.4510909,32.7940359 70.3492727,33.5504575 C70.2472424,34.3077288 70.2109697,35.1516667 70.2404545,36.0829085 C70.2688788,37.0145752 70.3929697,37.8729575 70.6110303,38.6589052 C70.8290909,39.4446405 71.1483333,40.0708497 71.5702424,40.5362582 C71.9910909,41.0023039 72.5360303,41.1331536 73.2048485,40.929232 C73.9606364,40.7259477 74.3530606,40.2087092 74.3825455,39.3792157 C74.4109697,38.5497222 74.2298182,37.5454085 73.8373939,36.3664869 C73.4449697,35.1877778 72.9437273,33.8930882 72.3332424,32.4809314 C71.7227576,31.0694118 71.1625455,29.6646895 70.654303,28.2676144 C70.1456364,26.8705392 69.782697,25.5463235 69.5646364,24.2945425 C69.3465758,23.0433987 69.4403333,21.9806699 69.8480303,21.1074183 C70.2546667,20.2341667 71.0687879,19.6160294 72.2895455,19.251732 C73.510303,18.8882843 75.2978485,18.909951 77.6519697,19.3173693 C77.0705455,19.4630882 76.7729394,19.8779412 76.7580909,20.5617157 C76.7434545,21.2457026 76.8893939,22.1047222 77.1942121,23.1375 C77.4996667,24.1711275 77.8846667,25.3356046 78.3496364,26.6302941 C78.8141818,27.9258333 79.2218788,29.2498366 79.5706061,30.6035784 C79.9191212,31.9571078 80.1371818,33.2817484 80.2245758,34.5766503 C80.3115455,35.8719771 80.1371818,37.0434641 79.7010606,38.0913235 C79.2653636,39.1389706 78.487303,40.0124346 77.3685758,40.710866 C76.2494242,41.4095098 74.6578788,41.8311601 72.5945758,41.9768791 C70.8791515,42.0928595 69.4556061,41.8821405 68.3218182,41.344085 C67.1884545,40.805817 66.3015758,40.0927288 65.6622424,39.2046078 C65.351697,38.7731863 65.0946061,38.3133007 64.8867273,37.8266503 C64.5621818,38.2298203 64.175697,38.6293791 63.7234545,39.0255392 C62.7710303,39.8597059 61.5812424,40.5747059 60.1532424,41.1705392 C58.7252424,41.7661601 57.1334848,42.0643954 55.3781818,42.0643954 C52.7601818,42.0643954 50.7369697,41.4910784 49.3089697,40.3438072 C47.8809697,39.1971732 46.9370303,37.7595261 46.4752424,36.0312908 M131.314182,27.4608497 C130.839667,29.3543464 126.453424,45.5376471 123.471,50.5354248 C120.488576,55.5329902 117.622394,57.9643301 107.269394,58.2950654 C104.117273,58.3959641 100.682394,58.1852451 96.969212,57.7703922 C93.2562424,57.3540523 89.4836667,56.8620915 85.6508485,56.2942974 C81.8182424,55.7252288 78.027,55.1678431 74.2726667,54.6215033 C70.5206667,54.0741013 67.0473939,53.703219 63.8528485,53.5060948 C60.66,53.3093954 57.8247879,53.3637745 55.3489091,53.6700817 C52.8747273,53.9755392 50.9584242,54.6971242 49.6,55.835049 C50.9584242,52.1612745 52.8936061,49.4057843 55.4089394,47.5690033 C57.9240606,45.7320098 60.7985152,44.5624346 64.0325152,44.0592157 C67.266303,43.5570588 70.7807273,43.5670425 74.5719697,44.0919281 C78.3653333,44.6168137 82.1981515,45.3936275 86.0702121,46.4208824 C89.9441818,47.4489869 93.6796364,48.7593954 97.448606,49.7993954 C99.598667,50.3926797 101.378576,50.8570261 102.877636,51.2238725 L102.877212,51.2236601 C116.077303,54.3045752 118.54597,51.7672386 119.917545,44.7618954 C121.603909,36.1487582 123.45997,31.2302124 123.227485,31.768268 C122.994364,32.3073856 122.726455,32.9767157 122.420788,33.776683 C122.115758,34.5775 121.759182,35.4358824 121.352758,36.3526797 C120.945061,37.2696895 120.473303,38.1284967 119.935576,38.9286765 C119.397212,39.7294935 118.779939,40.3911765 118.082697,40.9152124 C117.384818,41.4390359 116.585545,41.7009477 115.684879,41.7009477 C114.347242,41.7009477 113.344545,41.4248039 112.676152,40.8716667 C112.008394,40.3189542 111.579697,39.5912092 111.390061,38.6884314 C111.299485,38.2557353 111.253242,37.7907516 111.246455,37.2975163 C109.933,38.6168464 108.790091,39.6339052 107.822606,40.339134 C106.325242,41.4309641 105.155818,41.9764542 104.312848,41.9764542 C102.975212,41.9764542 102.038273,41.5038235 101.500545,40.5575 C101.005879,39.6876471 100.741364,38.5616176 100.701909,37.1857843 C99.961182,37.9500654 99.168485,38.6680392 98.317455,39.3350327 C97.445424,40.019232 96.573394,40.5944608 95.701576,41.0596569 C94.8295455,41.5254902 94.0886061,41.7583007 93.4783333,41.7583007 C92.606303,41.7583007 91.9661212,41.5112582 91.5594848,41.0161111 C91.152,40.5213889 90.9055152,39.8665033 90.8187576,39.0512418 C90.7313636,38.2366176 90.7676364,37.3123856 90.9277879,36.2787582 C91.0868788,35.2461928 91.3049394,34.1832516 91.5813333,33.0918464 C91.857303,32.0000163 92.1627576,30.9379248 92.4972727,29.9045098 C92.8309394,28.8715196 93.1075455,27.9472876 93.3253939,27.1320261 C93.5434545,26.317402 93.6809091,25.6627288 93.7392424,25.1673693 C93.7973636,24.6728595 93.6961818,24.4251797 93.4344242,24.4251797 C92.9980909,24.4251797 92.5110606,24.854902 91.9733333,25.7130719 C91.4356061,26.5718791 90.905303,27.6418301 90.3822121,28.9220752 C89.858697,30.2033824 89.3578788,31.5930229 88.8780606,33.0918464 C88.3984545,34.5910948 87.9913939,35.9807353 87.657303,37.2614052 C87.323,38.5422876 87.0907273,39.6120261 86.9596364,40.4701961 C86.8289697,41.3290033 86.8357576,41.7583007 86.981697,41.7583007 C85.3827273,42.2528105 84.1182727,42.3326797 83.1879091,41.9983333 C82.2573333,41.6641993 81.59,41.0379902 81.1825152,40.1211928 C80.7758788,39.204183 80.5798788,38.0403431 80.5945152,36.6281863 C80.6089394,35.2166667 80.7686667,33.6742974 81.073697,32.0000163 C81.3791515,30.326585 81.7862121,28.5660621 82.2944545,26.7171732 C82.802697,24.8693464 83.3336364,23.0497712 83.886,21.2599346 C84.4381515,19.4696732 84.976303,17.7601307 85.4991818,16.1296078 C86.0220606,14.4999346 86.4435455,13.0591013 86.7636364,11.8073203 C87.0828788,10.5561765 87.2718788,9.5444281 87.3302121,8.7729248 C87.3883333,8.0020588 87.2281818,7.5872059 86.8506061,7.5285784 C88.6527879,7.0047549 90.0184242,6.9760784 90.9487879,7.4412745 C91.8789394,7.9071078 92.5034242,8.7007026 92.8237273,9.8207843 C93.1429697,10.9415033 93.2085152,12.3092647 93.0197273,13.9249183 C92.8305152,15.5403595 92.5110606,17.2360948 92.0607273,19.0112745 C91.6099697,20.7870915 91.0794545,22.5478268 90.4691818,24.2941176 C89.858697,26.0406209 89.2989091,27.619951 88.7906667,29.0312582 C88.2822121,30.443415 87.8755758,31.5930229 87.5699091,32.4805065 C87.2650909,33.3686275 87.1844848,33.8272386 87.3302121,33.8557026 C87.5045758,33.9145425 87.715,33.5869935 87.9621212,32.8734804 C88.2090303,32.1603922 88.5295455,31.2731209 88.9215455,30.2101797 C89.3139697,29.1478758 89.7785152,27.9833987 90.3166667,26.7171732 C90.8539697,25.4511601 91.4937273,24.2722386 92.2348788,23.1808333 C92.9762424,22.0894281 93.8332121,21.1798529 94.8074848,20.4521078 C95.780697,19.7247876 96.892636,19.3604902 98.142667,19.3604902 C99.043333,19.3604902 99.646818,19.6738072 99.951848,20.2991667 C100.257303,20.9253758 100.394758,21.7332026 100.366333,22.7222222 C100.336848,23.7123039 100.184121,24.8111438 99.908576,26.0187418 C99.631758,27.2269771 99.356,28.4199183 99.080242,29.5988399 C98.803212,30.777549 98.579,31.8693791 98.404,32.8734804 C98.229636,33.8775817 98.229636,34.6709641 98.404,35.2527778 C98.578788,35.8354412 98.971212,36.1334641 99.581485,36.1481209 C99.879515,36.1553431 100.261758,36.0620915 100.726091,35.8713399 C100.795242,34.5636928 100.99803,33.1177614 101.347606,31.519951 C101.783727,29.5266176 102.30703,27.4814542 102.917515,25.3855229 C103.528,23.2900163 104.166909,21.2161765 104.835727,19.1640033 C105.503909,17.1120425 106.078333,15.2565686 106.557727,13.5973693 C107.037545,11.9383824 107.356788,10.5629739 107.516727,9.4713562 C107.676242,8.379951 107.553,7.718268 107.146364,7.4850327 C108.919061,7.0483007 110.270697,7.0559477 111.201061,7.5069118 C112.131212,7.9583007 112.755697,8.7075 113.076,9.7553595 C113.39503,10.8030065 113.482636,12.0911111 113.336909,13.6192484 C113.191606,15.1473856 112.915848,16.7776961 112.508788,18.5093301 C112.101727,20.2411765 111.621697,22.0019118 111.070394,23.7921732 C110.517606,25.5820098 110.024,27.2705229 109.587879,28.8566503 C109.15197,30.443415 108.817455,31.8623693 108.585182,33.1135131 C108.351636,34.3655065 108.337636,35.3116176 108.541485,35.951634 C108.744273,36.5920752 109.239364,36.8539869 110.024,36.7373693 C110.368485,36.6863889 110.792939,36.5313235 111.288667,36.2838562 C111.30903,36.0563562 111.332152,35.8269444 111.367788,35.5886111 C111.541939,34.4247712 111.803909,33.238415 112.152212,32.0301797 C112.501152,30.8227941 112.893364,29.6290033 113.329697,28.4500817 C113.765606,27.2713725 114.922303,24.1469118 115.242606,23.2008007 C115.561848,22.2551144 115.765485,21.4836111 115.853091,20.8865033 C115.939848,20.2902451 115.823606,19.9631209 115.503939,19.904281 C117.364242,19.1185458 118.810273,18.7621078 119.842667,18.8347549 C120.873576,18.907402 121.593091,19.2642647 122.000364,19.904281 C122.407424,20.5447222 122.574364,21.4105392 122.501394,22.5021569 C122.428848,23.5935621 122.225,24.7656863 121.891121,26.0166176 C121.556606,27.2683987 120.377848,30.5969935 119.913515,31.877451 C119.447909,33.1585458 119.033848,34.322598 118.670485,35.3704575 C118.307121,36.4181046 118.052788,37.2696895 117.907909,37.9243627 C117.76197,38.5792484 117.848939,38.9067974 118.16903,38.9067974 C118.459212,38.9067974 118.83,38.5507843 119.280758,37.8370588 C119.731091,37.124183 120.203485,36.2148203 120.697939,35.1083333 C121.19197,34.0026961 121.686,32.7725817 122.180455,31.4190523 C122.674485,30.0657353 123.896939,26.7010294 124.289364,25.4492484 C124.681788,24.1978922 124.986394,23.0697386 125.204455,22.0654248 C125.422515,21.0613235 125.517121,20.3410131 125.487848,19.904281 C127.086182,19.2929412 128.343848,19.0312418 129.259152,19.1185458 C130.175091,19.2056373 130.850697,19.5406209 131.286818,20.1226471 C131.723152,20.705098 131.962636,21.4693791 132.006333,22.4146405 C132.050879,23.3613889 131.789121,25.5673529 131.314182,27.4608497" id="Shape"></path>
            <path d="M70.6697879,76.1798366 L70.6697879,79.6031699 L71.0723939,79.6031699 C71.6733333,79.6031699 72.0988485,79.4810294 72.0988485,77.8980882 C72.0988485,76.3030392 71.6733333,76.1798366 71.0723939,76.1798366 L70.6697879,76.1798366 L70.6697879,76.1798366 L70.6697879,76.1798366 Z" id="Shape"></path>
            <path d="M50.7388788,76.100817 C50.5210303,76.100817 49.9421515,76.100817 49.9421515,77.8915033 C49.9421515,79.6821895 50.5210303,79.6821895 50.7388788,79.6821895 C50.7772727,79.6821895 50.812697,79.6798529 50.8466364,79.6760294 L50.6037576,79.4415196 C50.4936667,79.3359477 50.4887879,79.1615523 50.5916667,79.0493954 L50.8213939,78.7991667 C50.8729394,78.7433007 50.9446364,78.7110131 51.0201515,78.7088889 C51.0907879,78.7050654 51.1694848,78.7352288 51.2231515,78.7883333 L51.4250909,78.9850327 C51.4982727,78.7016667 51.5356061,78.3356699 51.5356061,77.8915033 C51.5353939,76.100817 50.9565152,76.100817 50.7388788,76.100817" id="Shape"></path>
            <path d="M59.2006061,59.579134 C49.2968788,59.579134 41.268303,67.6191667 41.268303,77.5365523 C41.268303,87.45415 49.2968788,95.493971 59.2006061,95.493971 C69.1043333,95.493971 77.1329091,87.45415 77.1329091,77.5365523 C77.1329091,67.6189542 69.1043333,59.579134 59.2006061,59.579134 L59.2006061,59.579134 L59.2006061,59.579134 Z M46.982,80.5981373 C45.9358182,80.5981373 45.3361515,79.9878595 45.3361515,78.9238562 L45.3361515,78.7857843 C45.3361515,78.6309314 45.4615152,78.5053922 45.6163636,78.5053922 L46.0365758,78.5053922 C46.1914242,78.5053922 46.3167879,78.6309314 46.3167879,78.7857843 L46.3167879,78.9631536 C46.3167879,79.4404575 46.5361212,79.6819771 46.9688485,79.6819771 C47.6998182,79.6819771 47.6998182,79.1757843 47.6998182,79.0092484 C47.6998182,78.591634 47.4514242,78.4690686 46.842,78.269183 C46.2455152,78.0735458 45.4282121,77.8054739 45.4282121,76.7081209 C45.4282121,75.7970588 46.0605455,75.1848693 47.0017273,75.1848693 C48.0035758,75.1848693 48.5555152,75.7399183 48.5555152,76.7474183 C48.5555152,76.9022712 48.4303636,77.0280229 48.2755152,77.0280229 L47.855303,77.0280229 C47.7004545,77.0280229 47.5750909,76.9022712 47.5750909,76.7474183 C47.5750909,76.1777124 47.291697,76.1010294 47.0148788,76.1010294 C46.6351818,76.1010294 46.4086364,76.3108987 46.4086364,76.6620261 C46.4086364,77.0883497 46.6614848,77.2145261 47.2823636,77.4197222 C47.8722727,77.6147222 48.6802424,77.881732 48.6802424,78.9433987 C48.6802424,79.964281 48.0298788,80.5981373 46.982,80.5981373 L46.982,80.5981373 L46.982,80.5981373 Z M52.4943939,80.4288399 L52.2646667,80.6786438 C52.2131212,80.7345098 52.1416364,80.7670098 52.0661212,80.769134 L52.0582727,80.769134 C51.9855152,80.769134 51.9155152,80.7406699 51.8631212,80.6896895 L51.5572424,80.3918791 C51.322,80.5291013 51.0477273,80.5983497 50.7386667,80.5983497 C49.9277273,80.5983497 48.9615152,80.1289052 48.9615152,77.8917157 C48.9615152,75.6545261 49.9277273,75.1850817 50.7386667,75.1850817 C51.5496061,75.1850817 52.5158182,75.6545261 52.5158182,77.8917157 C52.5158182,78.677451 52.3980909,79.294951 52.1662424,79.7331699 L52.4818788,80.0362908 C52.5923939,80.1414379 52.5972727,80.3164706 52.4943939,80.4288399 L52.4943939,80.4288399 L52.4943939,80.4288399 Z M56.1547576,78.9238562 C56.1547576,80.019085 55.5945455,80.5981373 54.5352121,80.5981373 C53.4760909,80.5981373 52.9156667,80.019085 52.9156667,78.9238562 L52.9156667,75.544281 C52.9156667,75.3892157 53.0410303,75.2636765 53.1958788,75.2636765 L53.6160909,75.2636765 C53.7709394,75.2636765 53.896303,75.3892157 53.896303,75.544281 L53.896303,78.9172712 C53.896303,79.5521895 54.151697,79.6819771 54.5352121,79.6819771 C54.9187273,79.6819771 55.1743333,79.552402 55.1743333,78.9172712 L55.1743333,75.544281 C55.1743333,75.3892157 55.299697,75.2636765 55.4545455,75.2636765 L55.8747576,75.2636765 C56.0296061,75.2636765 56.1547576,75.3892157 56.1547576,75.544281 L56.1547576,78.9238562 L56.1547576,78.9238562 L56.1547576,78.9238562 Z M59.5372424,80.2387255 C59.5372424,80.3937908 59.4118788,80.5193301 59.2570303,80.5193301 L56.8738485,80.5193301 C56.719,80.5193301 56.5936364,80.3937908 56.5936364,80.2387255 L56.5936364,75.544281 C56.5936364,75.3892157 56.719,75.2636765 56.8738485,75.2636765 L59.1980606,75.2636765 C59.3529091,75.2636765 59.4780606,75.3892157 59.4780606,75.544281 L59.4780606,75.899232 C59.4780606,76.0542974 59.3529091,76.1798366 59.1980606,76.1798366 L57.5740606,76.1798366 L57.5740606,77.3281699 L59.0733333,77.3281699 C59.2281818,77.3281699 59.3533333,77.4537092 59.3533333,77.6085621 L59.3533333,77.9635131 C59.3533333,78.1185784 59.2281818,78.2441176 59.0733333,78.2441176 L57.5740606,78.2441176 L57.5740606,79.6029575 L59.2570303,79.6029575 C59.4118788,79.6029575 59.5372424,79.7284967 59.5372424,79.8833497 L59.5372424,80.2387255 L59.5372424,80.2387255 L59.5372424,80.2387255 Z M62.7818485,80.2387255 C62.7818485,80.3937908 62.6564848,80.5193301 62.5016364,80.5193301 L60.1182424,80.5193301 C59.9633939,80.5193301 59.8382424,80.3937908 59.8382424,80.2387255 L59.8382424,75.544281 C59.8382424,75.3892157 59.9633939,75.2636765 60.1182424,75.2636765 L62.4424545,75.2636765 C62.597303,75.2636765 62.7226667,75.3892157 62.7226667,75.544281 L62.7226667,75.899232 C62.7226667,76.0542974 62.597303,76.1798366 62.4424545,76.1798366 L60.8186667,76.1798366 L60.8186667,77.3281699 L62.3177273,77.3281699 C62.4725758,77.3281699 62.5979394,77.4537092 62.5979394,77.6085621 L62.5979394,77.9635131 C62.5979394,78.1185784 62.4725758,78.2441176 62.3177273,78.2441176 L60.8186667,78.2441176 L60.8186667,79.6029575 L62.5016364,79.6029575 C62.6564848,79.6029575 62.7818485,79.7284967 62.7818485,79.8833497 L62.7818485,80.2387255 L62.7818485,80.2387255 L62.7818485,80.2387255 Z M66.1641212,80.2387255 C66.1641212,80.3937908 66.0389697,80.5193301 65.8841212,80.5193301 L63.139697,80.5193301 C62.9848485,80.5193301 62.8594848,80.3937908 62.8594848,80.2387255 L62.8594848,79.8444771 C62.8594848,79.7951961 62.8726364,79.7463399 62.8972424,79.7036438 L64.9380606,76.180049 L63.271,76.180049 C63.1161515,76.180049 62.9907879,76.0545098 62.9907879,75.8994444 L62.9907879,75.5444935 C62.9907879,75.3894281 63.1161515,75.2638889 63.271,75.2638889 L65.8512424,75.2638889 C66.0060909,75.2638889 66.1314545,75.3894281 66.1314545,75.5444935 L66.1314545,75.9389542 C66.1314545,75.987598 66.1187273,76.0351797 66.0947576,76.0778758 L64.0878788,79.6033824 L65.8841212,79.6033824 C66.0389697,79.6033824 66.1641212,79.7289216 66.1641212,79.8837745 L66.1641212,80.2387255 L66.1641212,80.2387255 L66.1641212,80.2387255 Z M69.3885758,80.2387255 C69.3885758,80.3937908 69.2632121,80.5193301 69.1083636,80.5193301 L66.7249697,80.5193301 C66.5701212,80.5193301 66.4449697,80.3937908 66.4449697,80.2387255 L66.4449697,75.544281 C66.4449697,75.3892157 66.5701212,75.2636765 66.7249697,75.2636765 L69.0491818,75.2636765 C69.2040303,75.2636765 69.3293939,75.3892157 69.3293939,75.544281 L69.3293939,75.899232 C69.3293939,76.0542974 69.2040303,76.1798366 69.0491818,76.1798366 L67.4253939,76.1798366 L67.4253939,77.3281699 L68.9244545,77.3281699 C69.079303,77.3281699 69.2046667,77.4537092 69.2046667,77.6085621 L69.2046667,77.9635131 C69.2046667,78.1185784 69.079303,78.2441176 68.9244545,78.2441176 L67.4253939,78.2441176 L67.4253939,79.6029575 L69.1083636,79.6029575 C69.2632121,79.6029575 69.3885758,79.7284967 69.3885758,79.8833497 L69.3885758,80.2387255 L69.3885758,80.2387255 L69.3885758,80.2387255 Z M73.0794848,77.8915033 C73.0794848,79.2562908 72.8393636,80.5193301 71.0989091,80.5193301 L69.9695758,80.5193301 C69.8147273,80.5193301 69.6893636,80.3937908 69.6893636,80.2387255 L69.6893636,75.544281 C69.6893636,75.3892157 69.8147273,75.2636765 69.9695758,75.2636765 L71.0989091,75.2636765 C72.8393636,75.2636765 73.0794848,76.5267157 73.0794848,77.8915033 L73.0794848,77.8915033 L73.0794848,77.8915033 Z" id="Shape"></path>
        </g>
    </g>
</svg>